<svg width="25" height="24" viewBox="0 0 25 24" fill="none" xmlns="http://www.w3.org/2000/svg">
<path fill-rule="evenodd" clip-rule="evenodd" d="M4.70508 4.5C3.87665 4.5 3.20508 5.17157 3.20508 6V19.5C3.20508 20.3284 3.87665 21 4.70508 21H19.7051C20.5335 21 21.2051 20.3284 21.2051 19.5V6C21.2051 5.17157 20.5335 4.5 19.7051 4.5H4.70508ZM1.70508 6C1.70508 4.34315 3.04822 3 4.70508 3H19.7051C21.3619 3 22.7051 4.34315 22.7051 6V19.5C22.7051 21.1569 21.3619 22.5 19.7051 22.5H4.70508C3.04822 22.5 1.70508 21.1569 1.70508 19.5V6Z" fill="#21272A"/>
<path fill-rule="evenodd" clip-rule="evenodd" d="M6.20508 1.5C6.61929 1.5 6.95508 1.83579 6.95508 2.25V3.75C6.95508 4.16421 6.61929 4.5 6.20508 4.5C5.79086 4.5 5.45508 4.16421 5.45508 3.75V2.25C5.45508 1.83579 5.79086 1.5 6.20508 1.5Z" fill="#21272A"/>
<path fill-rule="evenodd" clip-rule="evenodd" d="M18.2051 1.5C18.6193 1.5 18.9551 1.83579 18.9551 2.25V3.75C18.9551 4.16421 18.6193 4.5 18.2051 4.5C17.7909 4.5 17.4551 4.16421 17.4551 3.75V2.25C17.4551 1.83579 17.7909 1.5 18.2051 1.5Z" fill="#21272A"/>
<path fill-rule="evenodd" clip-rule="evenodd" d="M2.45508 6.75H21.9551V8.25H2.45508V6.75Z" fill="#21272A"/>
<path fill-rule="evenodd" clip-rule="evenodd" d="M15.8111 10.3337C15.94 10.2387 16.0959 10.1875 16.2561 10.1875H16.4708C16.885 10.1875 17.2208 10.5233 17.2208 10.9375V18.8125C17.2208 19.2267 16.885 19.5625 16.4708 19.5625C16.0565 19.5625 15.7208 19.2267 15.7208 18.8125V12.2637L14.6657 13.0412C14.3323 13.287 13.8627 13.2159 13.617 12.8825C13.3713 12.549 13.4424 12.0795 13.7758 11.8338L15.8111 10.3337Z" fill="#21272A"/>
<path fill-rule="evenodd" clip-rule="evenodd" d="M6.5421 11.2555C6.86183 10.715 7.65967 10 8.96184 10C9.6808 10 10.4124 10.1945 10.9834 10.6294C11.5739 11.0791 11.9554 11.7622 11.9567 12.6161C11.9599 12.9517 11.8962 13.2847 11.7693 13.5955C11.6425 13.906 11.4551 14.1883 11.2181 14.4256C10.5329 15.1246 9.54115 15.3733 8.96371 15.3733C8.5495 15.3733 8.21371 15.0375 8.21371 14.6233C8.21371 14.2091 8.5495 13.8733 8.96371 13.8733C9.07699 13.8733 9.29112 13.8431 9.53218 13.754C9.77018 13.6659 9.98922 13.5371 10.1484 13.3741C10.1507 13.3718 10.153 13.3695 10.1553 13.3672C10.2522 13.2704 10.3289 13.1553 10.3806 13.0285C10.4324 12.9016 10.4583 12.7658 10.4567 12.6288C10.4567 12.626 10.4567 12.6231 10.4567 12.6203C10.4567 12.2518 10.309 12.0012 10.0746 11.8227C9.81962 11.6285 9.42881 11.5 8.96184 11.5C8.25775 11.5 7.91934 11.8735 7.83314 12.0192C7.62225 12.3757 7.16228 12.4937 6.80577 12.2829C6.44926 12.072 6.33121 11.612 6.5421 11.2555Z" fill="#21272A"/>
<path fill-rule="evenodd" clip-rule="evenodd" d="M8.21473 14.6233C8.21473 14.2091 8.55051 13.8733 8.96473 13.8733C9.59839 13.8733 10.6958 14.1487 11.4482 14.9179C11.9926 15.473 12.2052 16.2163 12.2052 16.9459C12.2052 17.8337 11.8206 18.5622 11.2011 19.0516C10.5988 19.5274 9.81346 19.75 9.01207 19.75C7.49231 19.75 6.59699 18.6575 6.30927 18.1699C6.09876 17.8132 6.21731 17.3533 6.57404 17.1428C6.93078 16.9323 7.39062 17.0509 7.60112 17.4076C7.7709 17.6953 8.2659 18.25 9.01207 18.25C9.55084 18.25 9.98706 18.0991 10.2713 17.8745C10.5384 17.6636 10.7052 17.3651 10.7052 16.9459C10.7052 16.4928 10.5748 16.1694 10.3771 15.968L10.3761 15.967C9.96986 15.5515 9.29658 15.3733 8.96473 15.3733C8.55051 15.3733 8.21473 15.0375 8.21473 14.6233Z" fill="#21272A"/>
</svg>
