<svg width="25" height="24" viewBox="0 0 25 24" fill="none" xmlns="http://www.w3.org/2000/svg">
<path fill-rule="evenodd" clip-rule="evenodd" d="M4.7041 4.5C3.87567 4.5 3.2041 5.17157 3.2041 6V19.5C3.2041 20.3284 3.87567 21 4.7041 21H19.7041C20.5325 21 21.2041 20.3284 21.2041 19.5V6C21.2041 5.17157 20.5325 4.5 19.7041 4.5H4.7041ZM1.7041 6C1.7041 4.34315 3.04725 3 4.7041 3H19.7041C21.361 3 22.7041 4.34315 22.7041 6V19.5C22.7041 21.1569 21.361 22.5 19.7041 22.5H4.7041C3.04725 22.5 1.7041 21.1569 1.7041 19.5V6Z" fill="#21272A"/>
<path d="M14.0791 12C14.7004 12 15.2041 11.4963 15.2041 10.875C15.2041 10.2537 14.7004 9.75 14.0791 9.75C13.4578 9.75 12.9541 10.2537 12.9541 10.875C12.9541 11.4963 13.4578 12 14.0791 12Z" fill="#21272A"/>
<path d="M17.8291 12C18.4504 12 18.9541 11.4963 18.9541 10.875C18.9541 10.2537 18.4504 9.75 17.8291 9.75C17.2078 9.75 16.7041 10.2537 16.7041 10.875C16.7041 11.4963 17.2078 12 17.8291 12Z" fill="#21272A"/>
<path d="M14.0791 15.75C14.7004 15.75 15.2041 15.2463 15.2041 14.625C15.2041 14.0037 14.7004 13.5 14.0791 13.5C13.4578 13.5 12.9541 14.0037 12.9541 14.625C12.9541 15.2463 13.4578 15.75 14.0791 15.75Z" fill="#21272A"/>
<path d="M17.8291 15.75C18.4504 15.75 18.9541 15.2463 18.9541 14.625C18.9541 14.0037 18.4504 13.5 17.8291 13.5C17.2078 13.5 16.7041 14.0037 16.7041 14.625C16.7041 15.2463 17.2078 15.75 17.8291 15.75Z" fill="#21272A"/>
<path d="M6.5791 15.75C7.20042 15.75 7.7041 15.2463 7.7041 14.625C7.7041 14.0037 7.20042 13.5 6.5791 13.5C5.95778 13.5 5.4541 14.0037 5.4541 14.625C5.4541 15.2463 5.95778 15.75 6.5791 15.75Z" fill="#21272A"/>
<path d="M10.3291 15.75C10.9504 15.75 11.4541 15.2463 11.4541 14.625C11.4541 14.0037 10.9504 13.5 10.3291 13.5C9.70778 13.5 9.2041 14.0037 9.2041 14.625C9.2041 15.2463 9.70778 15.75 10.3291 15.75Z" fill="#21272A"/>
<path d="M6.5791 19.5C7.20042 19.5 7.7041 18.9963 7.7041 18.375C7.7041 17.7537 7.20042 17.25 6.5791 17.25C5.95778 17.25 5.4541 17.7537 5.4541 18.375C5.4541 18.9963 5.95778 19.5 6.5791 19.5Z" fill="#21272A"/>
<path d="M10.3291 19.5C10.9504 19.5 11.4541 18.9963 11.4541 18.375C11.4541 17.7537 10.9504 17.25 10.3291 17.25C9.70778 17.25 9.2041 17.7537 9.2041 18.375C9.2041 18.9963 9.70778 19.5 10.3291 19.5Z" fill="#21272A"/>
<path d="M14.0791 19.5C14.7004 19.5 15.2041 18.9963 15.2041 18.375C15.2041 17.7537 14.7004 17.25 14.0791 17.25C13.4578 17.25 12.9541 17.7537 12.9541 18.375C12.9541 18.9963 13.4578 19.5 14.0791 19.5Z" fill="#21272A"/>
<path fill-rule="evenodd" clip-rule="evenodd" d="M6.2041 1.5C6.61832 1.5 6.9541 1.83579 6.9541 2.25V3.75C6.9541 4.16421 6.61832 4.5 6.2041 4.5C5.78989 4.5 5.4541 4.16421 5.4541 3.75V2.25C5.4541 1.83579 5.78989 1.5 6.2041 1.5Z" fill="#21272A"/>
<path fill-rule="evenodd" clip-rule="evenodd" d="M18.2041 1.5C18.6183 1.5 18.9541 1.83579 18.9541 2.25V3.75C18.9541 4.16421 18.6183 4.5 18.2041 4.5C17.7899 4.5 17.4541 4.16421 17.4541 3.75V2.25C17.4541 1.83579 17.7899 1.5 18.2041 1.5Z" fill="#21272A"/>
<path fill-rule="evenodd" clip-rule="evenodd" d="M2.4541 6.75H21.9541V8.25H2.4541V6.75Z" fill="#21272A"/>
</svg>
