<svg width="25" height="24" viewBox="0 0 25 24" fill="none" xmlns="http://www.w3.org/2000/svg">
<path d="M8.3418 4H6.3418C5.23723 4 4.3418 4.89543 4.3418 6V18C4.3418 19.1046 5.23723 20 6.3418 20H18.3418C19.4464 20 20.3418 19.1046 20.3418 18V6C20.3418 4.89543 19.4464 4 18.3418 4H16.3418M12.3418 3V11M12.3418 11L15.3418 8M12.3418 11L9.3418 8M4.3418 13H6.92758C7.1928 13 7.44715 13.1054 7.63469 13.2929L10.0489 15.7071C10.2364 15.8946 10.4908 16 10.756 16H13.9276C14.1928 16 14.4472 15.8946 14.6347 15.7071L17.0489 13.2929C17.2364 13.1054 17.4908 13 17.756 13H20.3418" stroke="#21272A" stroke-width="2" stroke-linecap="round" stroke-linejoin="round"/>
</svg>
