<svg width="25" height="24" viewBox="0 0 25 24" fill="none" xmlns="http://www.w3.org/2000/svg">
<path fill-rule="evenodd" clip-rule="evenodd" d="M4.70508 4.5C3.87665 4.5 3.20508 5.17157 3.20508 6V19.5C3.20508 20.3284 3.87665 21 4.70508 21H19.7051C20.5335 21 21.2051 20.3284 21.2051 19.5V6C21.2051 5.17157 20.5335 4.5 19.7051 4.5H4.70508ZM1.70508 6C1.70508 4.34315 3.04822 3 4.70508 3H19.7051C21.3619 3 22.7051 4.34315 22.7051 6V19.5C22.7051 21.1569 21.3619 22.5 19.7051 22.5H4.70508C3.04822 22.5 1.70508 21.1569 1.70508 19.5V6Z" fill="#21272A"/>
<path d="M14.0801 12C14.7014 12 15.2051 11.4963 15.2051 10.875C15.2051 10.2537 14.7014 9.75 14.0801 9.75C13.4588 9.75 12.9551 10.2537 12.9551 10.875C12.9551 11.4963 13.4588 12 14.0801 12Z" fill="#21272A"/>
<path d="M17.8301 12C18.4514 12 18.9551 11.4963 18.9551 10.875C18.9551 10.2537 18.4514 9.75 17.8301 9.75C17.2088 9.75 16.7051 10.2537 16.7051 10.875C16.7051 11.4963 17.2088 12 17.8301 12Z" fill="#21272A"/>
<path d="M14.0801 15.75C14.7014 15.75 15.2051 15.2463 15.2051 14.625C15.2051 14.0037 14.7014 13.5 14.0801 13.5C13.4588 13.5 12.9551 14.0037 12.9551 14.625C12.9551 15.2463 13.4588 15.75 14.0801 15.75Z" fill="#21272A"/>
<path d="M17.8301 15.75C18.4514 15.75 18.9551 15.2463 18.9551 14.625C18.9551 14.0037 18.4514 13.5 17.8301 13.5C17.2088 13.5 16.7051 14.0037 16.7051 14.625C16.7051 15.2463 17.2088 15.75 17.8301 15.75Z" fill="#21272A"/>
<path d="M6.58008 15.75C7.2014 15.75 7.70508 15.2463 7.70508 14.625C7.70508 14.0037 7.2014 13.5 6.58008 13.5C5.95876 13.5 5.45508 14.0037 5.45508 14.625C5.45508 15.2463 5.95876 15.75 6.58008 15.75Z" fill="#21272A"/>
<path d="M10.3301 15.75C10.9514 15.75 11.4551 15.2463 11.4551 14.625C11.4551 14.0037 10.9514 13.5 10.3301 13.5C9.70876 13.5 9.20508 14.0037 9.20508 14.625C9.20508 15.2463 9.70876 15.75 10.3301 15.75Z" fill="#21272A"/>
<path d="M6.58008 19.5C7.2014 19.5 7.70508 18.9963 7.70508 18.375C7.70508 17.7537 7.2014 17.25 6.58008 17.25C5.95876 17.25 5.45508 17.7537 5.45508 18.375C5.45508 18.9963 5.95876 19.5 6.58008 19.5Z" fill="#21272A"/>
<path d="M10.3301 19.5C10.9514 19.5 11.4551 18.9963 11.4551 18.375C11.4551 17.7537 10.9514 17.25 10.3301 17.25C9.70876 17.25 9.20508 17.7537 9.20508 18.375C9.20508 18.9963 9.70876 19.5 10.3301 19.5Z" fill="#21272A"/>
<path d="M14.0801 19.5C14.7014 19.5 15.2051 18.9963 15.2051 18.375C15.2051 17.7537 14.7014 17.25 14.0801 17.25C13.4588 17.25 12.9551 17.7537 12.9551 18.375C12.9551 18.9963 13.4588 19.5 14.0801 19.5Z" fill="#21272A"/>
<path fill-rule="evenodd" clip-rule="evenodd" d="M6.20508 1.5C6.61929 1.5 6.95508 1.83579 6.95508 2.25V3.75C6.95508 4.16421 6.61929 4.5 6.20508 4.5C5.79086 4.5 5.45508 4.16421 5.45508 3.75V2.25C5.45508 1.83579 5.79086 1.5 6.20508 1.5Z" fill="#21272A"/>
<path fill-rule="evenodd" clip-rule="evenodd" d="M18.2051 1.5C18.6193 1.5 18.9551 1.83579 18.9551 2.25V3.75C18.9551 4.16421 18.6193 4.5 18.2051 4.5C17.7909 4.5 17.4551 4.16421 17.4551 3.75V2.25C17.4551 1.83579 17.7909 1.5 18.2051 1.5Z" fill="#21272A"/>
<path fill-rule="evenodd" clip-rule="evenodd" d="M2.45508 6.75H21.9551V8.25H2.45508V6.75Z" fill="#21272A"/>
</svg>
