<svg width="25" height="24" viewBox="0 0 25 24" fill="none" xmlns="http://www.w3.org/2000/svg">
<path d="M5.73908 12.57C5.86202 12.5175 5.99424 12.4903 6.12791 12.4898C6.26158 12.4893 6.39398 12.5156 6.51731 12.5672C6.64063 12.6188 6.75236 12.6945 6.8459 12.79C6.93943 12.8855 7.01288 12.9988 7.06189 13.1231C7.1109 13.2475 7.13447 13.3804 7.13123 13.514C7.12799 13.6477 7.09798 13.7793 7.043 13.9011C6.98801 14.023 6.90916 14.1325 6.8111 14.2234C6.71303 14.3142 6.59776 14.3845 6.47208 14.43C5.80362 14.6934 5.22991 15.1519 4.82558 15.7458C4.42126 16.3397 4.20505 17.0415 4.20508 17.76V19.5C4.20508 19.7652 4.31043 20.0196 4.49797 20.2071C4.68551 20.3946 4.93986 20.5 5.20508 20.5H13.2051C13.4703 20.5 13.7246 20.3946 13.9122 20.2071C14.0997 20.0196 14.2051 19.7652 14.2051 19.5V17.853C14.2052 17.1115 13.9799 16.3874 13.5592 15.7768C13.1384 15.1662 12.542 14.6979 11.8491 14.434C11.7226 14.3901 11.6063 14.3213 11.5069 14.2316C11.4075 14.1419 11.3272 14.0332 11.2706 13.9119C11.214 13.7905 11.1824 13.6591 11.1776 13.5253C11.1727 13.3916 11.1948 13.2582 11.2425 13.1331C11.2902 13.008 11.3625 12.8938 11.4551 12.7972C11.5478 12.7006 11.6589 12.6235 11.7818 12.5706C11.9048 12.5177 12.0371 12.4901 12.171 12.4893C12.3048 12.4885 12.4375 12.5146 12.5611 12.566C13.6327 12.9742 14.555 13.6983 15.2057 14.6425C15.8565 15.5867 16.205 16.7063 16.2051 17.853V19.5C16.2051 20.2956 15.889 21.0587 15.3264 21.6213C14.7638 22.1839 14.0007 22.5 13.2051 22.5H5.20508C4.40943 22.5 3.64637 22.1839 3.08376 21.6213C2.52115 21.0587 2.20508 20.2956 2.20508 19.5V17.76C2.20522 16.6402 2.54235 15.5463 3.17264 14.6206C3.80292 13.695 4.69718 12.9805 5.73908 12.57ZM9.20508 2.5C10.2659 2.5 11.2834 2.92143 12.0335 3.67157C12.7837 4.42172 13.2051 5.43913 13.2051 6.5V8.5C13.2051 9.56087 12.7837 10.5783 12.0335 11.3284C11.2834 12.0786 10.2659 12.5 9.20508 12.5C8.14421 12.5 7.1268 12.0786 6.37665 11.3284C5.62651 10.5783 5.20508 9.56087 5.20508 8.5V6.5C5.20508 5.43913 5.62651 4.42172 6.37665 3.67157C7.1268 2.92143 8.14421 2.5 9.20508 2.5ZM9.20508 4.5C8.67464 4.5 8.16594 4.71071 7.79086 5.08579C7.41579 5.46086 7.20508 5.96957 7.20508 6.5V8.5C7.20508 9.03043 7.41579 9.53914 7.79086 9.91421C8.16594 10.2893 8.67464 10.5 9.20508 10.5C9.73551 10.5 10.2442 10.2893 10.6193 9.91421C10.9944 9.53914 11.2051 9.03043 11.2051 8.5V6.5C11.2051 5.96957 10.9944 5.46086 10.6193 5.08579C10.2442 4.71071 9.73551 4.5 9.20508 4.5ZM18.2051 21.5C17.9399 21.5 17.6855 21.3946 17.498 21.2071C17.3104 21.0196 17.2051 20.7652 17.2051 20.5C17.2051 20.2348 17.3104 19.9804 17.498 19.7929C17.6855 19.6054 17.9399 19.5 18.2051 19.5H19.2051C19.4703 19.5 19.7246 19.3946 19.9122 19.2071C20.0997 19.0196 20.2051 18.7652 20.2051 18.5V16.662C20.205 15.9512 19.9813 15.2583 19.5657 14.6817C19.15 14.105 18.5635 13.6738 17.8891 13.449C17.7645 13.4075 17.6492 13.3419 17.55 13.2558C17.4507 13.1698 17.3694 13.0651 17.3106 12.9476C17.2518 12.8301 17.2167 12.7022 17.2074 12.5712C17.198 12.4402 17.2146 12.3086 17.2561 12.184C17.2976 12.0594 17.3632 11.9441 17.4492 11.8449C17.5353 11.7456 17.64 11.6643 17.7575 11.6055C17.8749 11.5467 18.0028 11.5117 18.1339 11.5023C18.2649 11.493 18.3965 11.5095 18.5211 11.551C19.5939 11.9085 20.527 12.5945 21.1882 13.5118C21.8494 14.4291 22.2051 15.5312 22.2051 16.662V18.5C22.2051 19.2956 21.889 20.0587 21.3264 20.6213C20.7638 21.1839 20.0007 21.5 19.2051 21.5H18.2051ZM15.2051 3.5C14.9399 3.5 14.6855 3.39464 14.498 3.20711C14.3104 3.01957 14.2051 2.76522 14.2051 2.5C14.2051 2.23478 14.3104 1.98043 14.498 1.79289C14.6855 1.60536 14.9399 1.5 15.2051 1.5C16.2659 1.5 17.2834 1.92143 18.0335 2.67157C18.7837 3.42172 19.2051 4.43913 19.2051 5.5V7.5C19.2051 8.56087 18.7837 9.57828 18.0335 10.3284C17.2834 11.0786 16.2659 11.5 15.2051 11.5C14.9399 11.5 14.6855 11.3946 14.498 11.2071C14.3104 11.0196 14.2051 10.7652 14.2051 10.5C14.2051 10.2348 14.3104 9.98043 14.498 9.79289C14.6855 9.60536 14.9399 9.5 15.2051 9.5C15.7355 9.5 16.2442 9.28929 16.6193 8.91421C16.9944 8.53914 17.2051 8.03043 17.2051 7.5V5.5C17.2051 4.96957 16.9944 4.46086 16.6193 4.08579C16.2442 3.71071 15.7355 3.5 15.2051 3.5Z" fill="#21272A"/>
</svg>
