<svg width="15" height="20" viewBox="0 0 15 20" fill="none" xmlns="http://www.w3.org/2000/svg">
<path d="M6.70751 19.5965C1.05012 11.3684 0 10.5239 0 7.5C0 3.35785 3.34702 0 7.4758 0C11.6046 0 14.9516 3.35785 14.9516 7.5C14.9516 10.5239 13.9015 11.3684 8.2441 19.5965C7.87284 20.1345 7.07873 20.1345 6.70751 19.5965ZM7.4758 10.625C9.19613 10.625 10.5907 9.2259 10.5907 7.5C10.5907 5.7741 9.19613 4.375 7.4758 4.375C5.75547 4.375 4.36089 5.7741 4.36089 7.5C4.36089 9.2259 5.75547 10.625 7.4758 10.625Z" fill="black"/>
</svg>
