<svg width="16" height="18" viewBox="0 0 16 18" fill="none" xmlns="http://www.w3.org/2000/svg">
<path d="M7.61914 10.6345V16.6103" stroke="#000001" stroke-linecap="round" stroke-linejoin="round"/>
<path d="M4.9668 16.6104H10.2737" stroke="#000001" stroke-linecap="round" stroke-linejoin="round"/>
<path d="M3.90485 7.04896C3.06036 7.04896 2.25046 6.67121 1.65332 5.9988C1.05617 5.32639 0.720703 4.4144 0.720703 3.46347V2.26831H4.43554V7.04896H3.90485Z" stroke="#000001" stroke-linecap="round" stroke-linejoin="round"/>
<path d="M11.3354 7.04896C12.1799 7.04896 12.9898 6.67121 13.5869 5.9988C14.1841 5.32639 14.5195 4.4144 14.5195 3.46347V2.26831H10.8047V7.04896H11.3354Z" stroke="#000001" stroke-linecap="round" stroke-linejoin="round"/>
<path d="M10.8038 7.04906C10.8038 7.99999 10.4684 8.91197 9.87122 9.58438C9.27408 10.2568 8.46418 10.6345 7.61969 10.6345C6.7752 10.6345 5.9653 10.2568 5.36816 9.58438C4.77102 8.91197 4.43555 7.99999 4.43555 7.04906V1.07324H10.8038V7.04906Z" stroke="#000001" stroke-linecap="round" stroke-linejoin="round"/>
</svg>
